HIERARCHY
ROOT Hips
{
	OFFSET 0.0000 0.0000 0.0000
	CHANNELS 6 Xposition Yposition Zposition Zrotation Xrotation Yrotation
	JOINT Spine1
	{
		OFFSET -0.0137 5.0038 -0.0537
		CHANNELS 3 Zrotation Xrotation Yrotation
		JOINT Spine2
		{
			OFFSET -0.0000 7.1253 -0.0298
			CHANNELS 3 Zrotation Xrotation Yrotation
			JOINT Chest
			{
				OFFSET -0.0000 7.5501 -0.8160
				CHANNELS 3 Zrotation Xrotation Yrotation
				JOINT Neck1
				{
					OFFSET -0.1817 26.3113 -0.5533
					CHANNELS 3 Zrotation Xrotation Yrotation
					JOINT Neck2
					{
						OFFSET -0.0000 7.7094 2.3026
						CHANNELS 3 Zrotation Xrotation Yrotation
						JOINT Head
						{
							OFFSET -0.0000 6.1289 1.9537
							CHANNELS 3 Zrotation Xrotation Yrotation
							JOINT Jaw
							{
								OFFSET 0.0026 0.4756 3.0949
								CHANNELS 3 Zrotation Xrotation Yrotation
								End Site
								{
									OFFSET 0.0 1.0 0.0
								}
							}
							JOINT LeftEye
							{
								OFFSET 3.2064 5.3802 7.5869
								CHANNELS 3 Zrotation Xrotation Yrotation
								End Site
								{
									OFFSET 0.0 1.0 0.0
								}
							}
							JOINT RightEye
							{
								OFFSET -3.2224 5.3619 7.5582
								CHANNELS 3 Zrotation Xrotation Yrotation
								End Site
								{
									OFFSET 0.0 1.0 0.0
								}
							}
						}
					}
				}
				JOINT LeftShoulder
				{
					OFFSET 1.6217 23.2372 5.1134
					CHANNELS 3 Zrotation Xrotation Yrotation
					JOINT LeftArm
					{
						OFFSET 14.9198 0.0000 -5.5023
						CHANNELS 3 Zrotation Xrotation Yrotation
						JOINT LeftForeArm
						{
							OFFSET 28.7393 0.0000 -0.0026
							CHANNELS 3 Zrotation Xrotation Yrotation
							JOINT LeftHand
							{
								OFFSET 27.0940 -0.0000 0.0026
								CHANNELS 3 Zrotation Xrotation Yrotation
								JOINT LeftHandThumbEnd
								{
									OFFSET 12.2686 -3.2202 4.8331
									CHANNELS 3 Zrotation Xrotation Yrotation
									End Site
									{
										OFFSET 0.0 1.0 0.0
									}
								}
								JOINT LeftHandMiddleEnd
								{
									OFFSET 19.0120 -0.3129 -0.0340
									CHANNELS 3 Zrotation Xrotation Yrotation
									End Site
									{
										OFFSET 0.0 1.0 0.0
									}
								}
							}
						}
					}
				}
				JOINT RightShoulder
				{
					OFFSET -1.3801 23.1803 5.2142
					CHANNELS 3 Zrotation Xrotation Yrotation
					JOINT RightArm
					{
						OFFSET -15.0372 0.0000 -5.5456
						CHANNELS 3 Zrotation Xrotation Yrotation
						JOINT RightForeArm
						{
							OFFSET -28.7366 0.0000 -0.0026
							CHANNELS 3 Zrotation Xrotation Yrotation
							JOINT RightHand
							{
								OFFSET -27.1336 -0.0000 0.0026
								CHANNELS 3 Zrotation Xrotation Yrotation
								JOINT RightHandThumbEnd
								{
									OFFSET -12.2642 -3.2115 4.8040
									CHANNELS 3 Zrotation Xrotation Yrotation
									End Site
									{
										OFFSET 0.0 1.0 0.0
									}
								}
								JOINT RightHandMiddleEnd
								{
									OFFSET -19.0006 -0.3066 -0.0316
									CHANNELS 3 Zrotation Xrotation Yrotation
									End Site
									{
										OFFSET 0.0 1.0 0.0
									}
								}
							}
						}
					}
				}
			}
		}
	}
	JOINT LeftLeg
	{
		OFFSET 10.0432 -8.4345 2.5957
		CHANNELS 3 Zrotation Xrotation Yrotation
		JOINT LeftShin
		{
			OFFSET -0.0000 -43.2218 -0.8029
			CHANNELS 3 Zrotation Xrotation Yrotation
			JOINT LeftFoot
			{
				OFFSET 0.0000 -42.1551 -3.4815
				CHANNELS 3 Zrotation Xrotation Yrotation
				JOINT LeftToeBase
				{
					OFFSET 0.0000 -5.0595 13.2315
					CHANNELS 3 Zrotation Xrotation Yrotation
					End Site
					{
						OFFSET 0.0 1.0 0.0
					}
				}
			}
		}
	}
	JOINT RightLeg
	{
		OFFSET -10.0473 -8.2953 2.6203
		CHANNELS 3 Zrotation Xrotation Yrotation
		JOINT RightShin
		{
			OFFSET 0.0000 -43.3622 -0.8056
			CHANNELS 3 Zrotation Xrotation Yrotation
			JOINT RightFoot
			{
				OFFSET 0.0000 -42.1174 -3.4784
				CHANNELS 3 Zrotation Xrotation Yrotation
				JOINT RightToeBase
				{
					OFFSET -0.0000 -5.0796 13.2842
					CHANNELS 3 Zrotation Xrotation Yrotation
					End Site
					{
						OFFSET 0.0 1.0 0.0
					}
				}
			}
		}
	}
}
MOTION
Frames: 8
Frame Time: 0.033333
-1.0789 100.5350 5.2828 -0.1449 -2.8023 0.2047 -0.0686 -1.4666 0.0349 -0.4257 -5.6122 0.3787 -0.0876 13.5782 -1.0771 1.0810 0.7840 2.2482 -0.6850 -3.6367 0.3923 -1.0879 -3.3987 0.0304 0.0208 -0.0292 -0.0812 0.7899 -10.5920 -3.9311 -0.7524 -10.6120 3.7686 -9.1308 12.2902 -1.8688 -59.6542 1.6431 -35.4810 0.0616 0.0654 -23.8907 2.2109 -9.1806 6.2053 -15.9526 10.4569 15.6285 -60.0617 1.3204 2.4630 11.7566 12.7831 9.6199 58.5014 -2.1140 27.5004 0.4747 -0.0829 22.9338 1.1194 -4.5349 -0.2921 15.4658 7.2237 -16.2204 50.0209 -3.6634 -5.2576 1.3599 2.5644 3.1151 0.0166 1.8946 0.1039 -1.9141 -1.5194 -1.3467 1.6379 -1.0407 -1.8003 -2.5686 4.4866 0.9936 0.0088 1.8340 -0.0072 2.8028 -3.3849 -4.9597 -1.4287 -0.9949 1.1731
-0.9521 100.5376 5.5077 -0.1059 -2.7341 0.1560 -0.0689 -1.4639 0.0188 -0.4161 -5.5961 0.4296 -0.1073 13.5219 -1.1170 0.9992 0.7192 2.2919 -0.7090 -3.6195 0.4350 -1.1338 -3.4050 0.0460 0.0189 -0.0319 -0.0560 0.7894 -10.5909 -3.9064 -0.7553 -10.6118 3.7942 -9.1395 12.2586 -1.8316 -59.7427 1.6229 -35.4877 -0.0084 0.0301 -23.6785 2.1385 -9.2749 6.1716 -15.9599 10.4402 15.5868 -60.1005 1.3444 2.3720 11.7141 12.8042 9.6853 58.4000 -2.1002 27.6609 0.4502 -0.0784 22.6192 1.3382 -4.6234 -0.2638 15.5293 7.2138 -16.2540 50.1702 -3.6377 -5.2694 1.2149 2.5988 3.1855 0.0019 1.8592 0.0515 -1.9256 -1.7039 -1.3207 1.6400 -1.0996 -1.8413 -2.7353 4.4979 0.9762 0.0082 1.8046 -0.0021 2.9064 -3.4694 -4.8827 -1.4332 -1.0445 1.1601
-0.7764 100.5371 5.7740 -0.0455 -2.6683 0.0904 -0.0819 -1.4701 0.0031 -0.4115 -5.5995 0.4513 -0.1194 13.5355 -1.1349 0.9249 0.6416 2.3358 -0.7086 -3.6455 0.4400 -1.2135 -3.3792 0.0799 0.0195 -0.0333 -0.0552 0.7878 -10.6053 -3.9050 -0.7525 -10.6237 3.7930 -9.1339 12.2611 -1.8358 -59.8232 1.6825 -35.5394 -0.0429 -0.0016 -23.5684 1.9208 -9.5176 6.2040 -16.0024 10.4726 15.6065 -60.1574 1.3681 2.3816 11.7021 12.8463 9.7534 58.2543 -2.1537 27.7047 0.4637 -0.0984 22.4031 1.4589 -4.6476 -0.2753 15.5910 7.2186 -16.2550 50.2560 -3.6205 -5.2954 1.0308 2.6538 3.1972 -0.0050 1.8243 0.0188 -1.8686 -1.8565 -1.2698 1.6426 -1.1072 -1.8536 -2.9230 4.5201 0.9879 0.0115 1.7985 -0.0017 3.0306 -3.6071 -4.8602 -1.4338 -1.0260 1.1430
-0.5933 100.5231 5.9792 0.0273 -2.5966 0.0000 -0.1111 -1.4789 0.0098 -0.4032 -5.6175 0.4396 -0.1301 13.5824 -1.1354 0.8429 0.5864 2.3926 -0.6922 -3.6704 0.4584 -1.2875 -3.4018 0.1134 0.0207 -0.0355 -0.0592 0.7879 -10.6188 -3.9075 -0.7500 -10.6358 3.7868 -9.1530 12.2979 -1.8587 -59.8517 1.8225 -35.6596 -0.0322 -0.0070 -23.5683 1.6648 -9.7525 6.2502 -16.0157 10.4883 15.5961 -60.1949 1.3853 2.4074 11.7148 12.8789 9.8125 58.1026 -2.1462 27.7474 0.4680 -0.1069 22.3503 1.5194 -4.7345 -0.2992 15.6150 7.2339 -16.2577 50.2553 -3.6095 -5.3097 0.8249 2.7069 3.2238 -0.0040 1.8300 0.0009 -1.7772 -2.0139 -1.1872 1.6434 -1.1178 -1.8509 -3.1454 4.5472 0.9773 0.0124 1.8042 -0.0104 3.2014 -3.7739 -4.7835 -1.4349 -1.0224 1.1267
-0.3897 100.4982 6.2105 0.1005 -2.5197 -0.0712 -0.1466 -1.4948 0.0240 -0.3917 -5.6295 0.4219 -0.1411 13.6340 -1.1390 0.7703 0.5359 2.4213 -0.6640 -3.6831 0.4773 -1.3331 -3.4943 0.1668 0.0208 -0.0338 -0.0596 0.7909 -10.6203 -3.9087 -0.7528 -10.6351 3.7863 -9.1646 12.3614 -1.8861 -59.8560 1.9221 -35.7527 -0.0270 -0.0020 -23.5951 1.4426 -9.9230 6.2566 -16.0032 10.4876 15.5412 -60.1819 1.4021 2.4008 11.7398 12.9193 9.8207 57.9589 -2.0566 27.8978 0.4279 -0.1020 22.3843 1.5417 -4.8515 -0.3442 15.6112 7.2408 -16.2416 50.2000 -3.6088 -5.3057 0.6023 2.7823 3.1951 0.0004 1.8254 -0.0039 -1.6497 -2.1522 -1.0715 1.6438 -1.1156 -1.8491 -3.3778 4.5969 0.9420 0.0137 1.7942 -0.0078 3.4112 -3.9500 -4.6953 -1.4364 -0.9938 1.1096
-0.1738 100.4601 6.4241 0.1754 -2.4261 -0.1758 -0.1850 -1.5162 0.0473 -0.3862 -5.6423 0.4137 -0.1427 13.6828 -1.1520 0.7078 0.5112 2.4469 -0.6303 -3.6845 0.5221 -1.3598 -3.6275 0.2311 0.0202 -0.0294 -0.0569 0.7938 -10.6117 -3.9060 -0.7567 -10.6270 3.7892 -9.1539 12.4061 -1.8863 -59.8602 2.0116 -35.7987 -0.0231 -0.0021 -23.6478 1.2546 -10.0817 6.2280 -15.9648 10.4984 15.5088 -60.1565 1.4287 2.4014 11.7886 12.9679 9.8205 57.7857 -1.9371 28.0751 0.4125 -0.0999 22.4486 1.4510 -4.9547 -0.3761 15.5948 7.2374 -16.2325 50.1592 -3.6135 -5.2967 0.3599 2.8617 3.1421 0.0077 1.8372 0.0053 -1.4915 -2.3083 -0.9054 1.6437 -1.1187 -1.8499 -3.6246 4.6593 0.9026 0.0188 1.7748 0.0020 3.6437 -4.1559 -4.5667 -1.4372 -0.9847 1.1011
0.0374 100.4259 6.6299 0.2451 -2.3238 -0.2981 -0.2193 -1.5267 0.0717 -0.3752 -5.6482 0.4222 -0.1363 13.7080 -1.1551 0.6480 0.5317 2.4486 -0.6008 -3.6920 0.5855 -1.3511 -3.7843 0.3121 0.0196 -0.0285 -0.0542 0.7921 -10.6081 -3.9020 -0.7559 -10.6235 3.7909 -9.1151 12.4198 -1.8685 -59.9000 2.1065 -35.8072 -0.0117 -0.0015 -23.7327 1.1097 -10.2629 6.1653 -15.9193 10.5066 15.4831 -60.1169 1.4488 2.3931 11.8376 13.0142 9.8105 57.6481 -1.7827 28.3042 0.3929 -0.0919 22.4763 1.2680 -5.0224 -0.3980 15.5960 7.2310 -16.2183 50.1330 -3.6013 -5.2929 0.1039 2.9628 3.0736 0.0074 1.8367 0.0190 -1.3190 -2.4808 -0.6859 1.6443 -1.1395 -1.8512 -3.8756 4.7379 0.8596 0.0265 1.7509 0.0195 3.8788 -4.3802 -4.4275 -1.4357 -1.0405 1.0960
0.2476 100.3897 6.8734 0.3107 -2.2347 -0.4082 -0.2496 -1.5245 0.0947 -0.3642 -5.6508 0.4386 -0.1186 13.7320 -1.1480 0.6230 0.6039 2.4338 -0.5812 -3.6871 0.6434 -1.3400 -3.9901 0.3814 0.0183 -0.0239 -0.0546 0.7891 -10.6015 -3.9021 -0.7554 -10.6160 3.7906 -9.0326 12.4303 -1.8500 -59.9598 2.1796 -35.7791 0.0095 -0.0039 -23.8789 1.0411 -10.4940 6.0865 -15.8891 10.5063 15.4586 -60.1100 1.4594 2.3969 11.8678 13.0778 9.8192 57.5633 -1.6547 28.4814 0.4085 -0.1025 22.4659 1.0254 -4.9769 -0.4234 15.5800 7.2318 -16.2061 50.0947 -3.5995 -5.2944 -0.1562 3.0864 2.9746 0.0053 1.8491 0.0247 -1.1776 -2.6770 -0.4155 1.6437 -1.1391 -1.8544 -4.1468 4.8470 0.7819 0.0339 1.7414 0.0380 4.0787 -4.6368 -4.2708 -1.4347 -1.1177 1.0872
